<svg xmlns="http://www.w3.org/2000/svg" width="20" height="14" viewBox="0 0 20 14">
    <path fill="#FFF" fill-rule="evenodd" d="M3.213.916l-1.39.001c-.418.001-.762.27-.837.653-.019.094-.004.106.055.134.197.094.387.2.572.301.077.043.153.085.23.126l1.465.79 6.319 3.406c.08.044.14.064.193.064.04 0 .08-.012.126-.036 2.726-1.471 5.657-3.051 8.615-4.638.09-.048.1-.073.073-.177-.102-.39-.427-.623-.87-.623H5.011L3.213.915zM.98 3.335v8.487c0 .468.359.809.853.809a30247.91 30247.91 0 0 0 15.96 0c.496 0 .856-.34.856-.808V2.718l-1.364.734C15.04 4.66 12.72 5.91 10.438 7.141c-.21.113-.422.17-.63.17-.2 0-.402-.053-.599-.16L.98 2.719v.617zm.948 10.213C.774 13.548 0 12.822 0 11.743v-9.9C0 1.29.184.825.533.5.882.173 1.38 0 1.97 0H17.7c1.152 0 1.927.726 1.927 1.805v9.939c0 1.079-.775 1.804-1.929 1.804H1.927z"/>
</svg>
