<svg xmlns="http://www.w3.org/2000/svg" width="26" height="26" viewBox="0 0 26 26">
    <path fill="#FFF" fill-rule="evenodd" d="M13 0C5.832 0 0 5.832 0 13s5.832 13 13 13c1.052 0 2.07-.14 3.049-.378a3.41 3.41 0 0 0 2.965-3.606 3.396 3.396 0 0 0-.38-1.347 1.45 1.45 0 0 0 .104-1.708l-1.436-2.21a1.446 1.446 0 0 0-1.998-.423l-.393.256c-.22.144-.387.34-.498.56-.683-.645-1.48-1.675-2.411-3.287-.958-1.66-1.454-2.89-1.662-3.813.271.03.553-.014.813-.145l.418-.212c.71-.36.994-1.233.633-1.942l-1.197-2.349a1.455 1.455 0 0 0-1.947-.635l-.418.212a1.43 1.43 0 0 0-.545.484l-.002-.003c-1.051 1.61-1.352 4.514 1.647 9.708 2.834 4.908 5.37 6.243 7.261 6.286.101.009.203.007.305-.005l.043-.002-.003-.003c.013-.002.026-.008.038-.01.097.21.16.441.177.686a1.949 1.949 0 0 1-1.19 1.92c-1.068.33-2.199.511-3.373.511-6.366 0-11.545-5.179-11.545-11.545S6.634 1.455 13 1.455 24.545 6.634 24.545 13c0 3.532-1.597 6.695-4.103 8.814.009.067.022.134.026.202a3.38 3.38 0 0 1-.442 1.915C23.617 21.615 26 17.58 26 13 26 5.83 20.168 0 13 0"/>
</svg>
