<svg xmlns="http://www.w3.org/2000/svg" width="120" height="39" viewBox="0 0 120 39">
    <g fill="#BDBBBB" fill-rule="evenodd">
        <path d="M0 38.71h120V0H0v38.71zm2.369-2.223h115.263V2.224H2.37v34.263z"/>
        <path d="M15.22 24.612L12.54 8.102H9.524l3.917 21.606h3.593l3.918-21.606h-3.02L15.22 24.615zM35.572 26.77c0 .998-.823 1.722-1.957 1.722-.956 0-1.924-.591-1.924-1.722V12.41c0-.994.79-1.69 1.924-1.69 1.153 0 1.957.696 1.957 1.69v14.36zM33.615 8.64c-1.494 0-2.57.318-3.287.975-.953.9-1.382 1.846-1.382 3.052v13.847c0 1.223.416 2.138 1.394 3.063.696.658 1.737.964 3.275.964 1.537 0 2.578-.306 3.274-.964 1.005-.922 1.429-1.834 1.429-3.063V12.667c0-1.213-.437-2.154-1.416-3.053-.718-.656-1.794-.975-3.287-.975zM49.514 8.639H46.89l4.411 12.784v9.119h2.736v-9.053l4.445-12.85h-2.622l-3.174 9.525zM73.268 30.542h2.638l-3.86-21.903h-3.313l-3.861 21.903h2.638l2.879-17.829zM106.474 10.594h4.643V8.639h-7.66v21.902h7.66v-2.12h-4.643v-7.92h3.448v-1.422h-3.448zM93.814 13.788v-1.09c0-1.235-.438-2.187-1.417-3.084-.698-.66-1.745-.975-3.216-.975-1.47 0-2.518.316-3.205.964-.991.908-1.427 1.86-1.427 3.094V26.47c0 1.222.426 2.147 1.427 3.093.687.648 1.736.964 3.205.964.049 0 .098.006.149.015h4.484V19.078H90.22v1.423h.985V28.448H89.25c-1.153 0-1.957-.708-1.957-1.721V12.44c0-1.013.776-1.72 1.888-1.72 1.113 0 1.889.707 1.889 1.72v1.348h2.744z"/>
    </g>
</svg>
