<svg xmlns="http://www.w3.org/2000/svg" width="91" height="32" viewBox="0 0 91 32">
    <g fill="#FEFEFE" fill-rule="evenodd">
        <path d="M0 31.2h90.6V0H0v31.2zm1.788-1.792h87.024V1.792H1.788v27.616z"/>
        <path d="M11.491 19.837L9.469 6.53H7.19l2.958 17.414h2.713L15.819 6.53h-2.28L11.49 19.84zM26.857 21.576c0 .804-.621 1.388-1.478 1.388-.721 0-1.452-.476-1.452-1.388V10.003c0-.802.597-1.362 1.452-1.362.87 0 1.478.56 1.478 1.362v11.573zM25.38 6.963c-1.128 0-1.94.257-2.482.787-.719.725-1.043 1.487-1.043 2.46v11.16c0 .986.314 1.723 1.053 2.469.525.53 1.311.777 2.472.777s1.947-.247 2.473-.777c.758-.743 1.078-1.478 1.078-2.47V10.21c0-.977-.33-1.736-1.07-2.46-.541-.53-1.353-.786-2.48-.786zM37.383 6.963h-1.98l3.33 10.304v7.35h2.065V17.32l3.357-10.357h-1.98l-2.396 7.677zM55.317 24.616h1.992L54.394 6.963h-2.5l-2.916 17.653h1.992l2.174-14.37zM80.388 8.538h3.506V6.963H78.11v17.653h5.784v-1.709h-3.506v-6.384h2.603v-1.146h-2.603zM70.83 11.113v-.88c0-.994-.33-1.761-1.07-2.484-.527-.532-1.318-.786-2.428-.786-1.11 0-1.901.254-2.42.777-.748.732-1.078 1.499-1.078 2.494v11.1c0 .986.322 1.73 1.078 2.493.519.523 1.31.778 2.42.778a.6.6 0 0 1 .112.011h3.385v-9.238h-2.712v1.146h.743V22.928h-1.476c-.87 0-1.478-.57-1.478-1.387V10.026c0-.816.586-1.386 1.426-1.386s1.426.57 1.426 1.386v1.087h2.071z"/>
    </g>
</svg>
